<?xml version="1.0" encoding="UTF-8" standalone="no"?>
<svg
   width="1200"
   height="630"
   viewBox="0 0 1200 630"
   version="1.1"
   xmlns="http://www.w3.org/2000/svg"
   xmlns:svg="http://www.w3.org/2000/svg">
  <rect
     style="fill:#ffffff;stroke-width:1"
     width="1200"
     height="630"
     x="0"
     y="0" />
  <rect
     style="fill:#ff6600;stroke-width:1.11262"
     width="1200"
     height="120"
     x="0"
     y="0" />
  <text
     xml:space="preserve"
     style="font-style:normal;font-variant:normal;font-weight:bold;font-stretch:normal;font-size:102.667px;font-family:Nunito, Arial, sans-serif;fill:#ffffff"
     x="60"
     y="95"
     id="text1">LingoMitra</text>
  <text
     xml:space="preserve"
     style="font-style:normal;font-variant:normal;font-weight:normal;font-stretch:normal;font-size:62px;font-family:Nunito, Arial, sans-serif;fill:#333333"
     x="60"
     y="200"
     id="text2">Learn Languages the Smart Way</text>
  <g
     transform="matrix(4.5,0,0,4.5,800,320)"
     fill="none">
    <path
       d="m 26,50 c 4,0 8,1 11,4 4,3 6,7 6,12 0,4 -1,8 -4,11 -2,3 -6,5 -10,6 -4,1 -8,1 -12,-1 -3,-1 -6,-4 -8,-7 -2,-3 -3,-7 -2,-11 0,-4 2,-8 5,-11 3,-3 8,-4 12,-4 1,0 1,0 2,0 z"
       fill="#ff6600" />
    <path
       d="m 32,35 c 0,0 1,0 1,0 0,0 0,0 0,0 0,0 0,0 0,0 0,0 0,0 0,0 0,1 0,1 0,1 0,0 0,0 0,0 0,0 0,0 0,0 0,0 -1,0 -1,0 -1,0 -1,0 -1,0 0,0 0,0 0,0 0,0 0,0 0,0 0,0 0,0 0,0 0,-1 1,-1 1,-1 z"
       fill="#333333" />
    <path
       d="m 39,34 c 0,1 -1,1 -1,1 0,0 0,0 0,0 0,0 0,0 0,0 0,0 0,0 0,0 -1,0 -1,0 -1,-1 0,0 0,0 0,0 0,0 0,0 0,0 0,0 0,0 0,0 0,0 0,-1 1,-1 0,0 0,0 0,0 0,0 0,0 0,0 0,0 0,0 0,0 1,0 1,1 1,1 z"
       fill="#333333" />
    <path
       d="m 30,37 c -1,1 -1,2 0,3 0,1 1,2 1,3 1,1 1,2 1,3 0,1 1,3 2,4 1,1 2,1 3,1 1,0 2,-1 2,-3 1,-2 1,-4 1,-6 1,-2 1,-3 3,-3"
       stroke="#333333"
       stroke-width="2"
       stroke-linecap="round"
       stroke-linejoin="round" />
  </g>
  <text
     xml:space="preserve"
     style="font-style:normal;font-variant:normal;font-weight:normal;font-stretch:normal;font-size:39px;font-family:Arial, sans-serif;fill:#666666"
     x="60"
     y="550"
     id="text3">Master languages with interactive, pattern-based lessons.
Choose from German, Spanish, French, Chinese, Japanese, and Hindi.</text>
</svg>