<?xml version="1.0" encoding="UTF-8"?>
<svg width="40px" height="40px" viewBox="0 0 40 40" version="1.1" xmlns="http://www.w3.org/2000/svg">
    <title>Tutor Icon</title>
    <g stroke="none" stroke-width="1" fill="none" fill-rule="evenodd">
        <circle fill="#FF6600" cx="20" cy="20" r="20"></circle>
        <g transform="translate(10.000000, 10.000000)" fill="#FFFFFF" fill-rule="nonzero">
            <path d="M16,0 C17.1045695,0 18,0.8954305 18,2 L18,4 C18,8.418278 14.418278,12 10,12 L8,12 C3.581722,12 0,8.418278 0,4 L0,2 C0,0.8954305 0.8954305,0 2,0 L16,0 Z M16,2 L2,2 L2,4 C2,7.3137085 4.6862915,10 8,10 L10,10 C13.3137085,10 16,7.3137085 16,4 L16,2 Z"></path>
            <path d="M6,16 C7.1045695,16 8,16.8954305 8,18 C8,19.1045695 7.1045695,20 6,20 C4.8954305,20 4,19.1045695 4,18 C4,16.8954305 4.8954305,16 6,16 Z"></path>
            <path d="M12,16 C13.1045695,16 14,16.8954305 14,18 C14,19.1045695 13.1045695,20 12,20 C10.8954305,20 10,19.1045695 10,18 C10,16.8954305 10.8954305,16 12,16 Z"></path>
        </g>
    </g>
</svg>