<?xml version="1.0" encoding="UTF-8"?>
<svg width="40px" height="40px" viewBox="0 0 40 40" version="1.1" xmlns="http://www.w3.org/2000/svg">
    <title>User Icon</title>
    <g stroke="none" stroke-width="1" fill="none" fill-rule="evenodd">
        <circle fill="#4C7EF9" cx="20" cy="20" r="20"></circle>
        <g transform="translate(10.000000, 10.000000)" fill="#FFFFFF" fill-rule="nonzero">
            <path d="M10,0 C13.3137085,0 16,2.6862915 16,6 C16,9.3137085 13.3137085,12 10,12 C6.6862915,12 4,9.3137085 4,6 C4,2.6862915 6.6862915,0 10,0 Z M10,2 C7.790861,2 6,3.790861 6,6 C6,8.209139 7.790861,10 10,10 C12.209139,10 14,8.209139 14,6 C14,3.790861 12.209139,2 10,2 Z"></path>
            <path d="M10,14 C15.5228475,14 20,18.4771525 20,24 L20,26 L0,26 L0,24 C0,18.4771525 4.4771525,14 10,14 Z M10,16 C5.581722,16 2,19.581722 2,24 L18,24 C18,19.581722 14.418278,16 10,16 Z"></path>
        </g>
    </g>
</svg>