<svg xmlns="http://www.w3.org/2000/svg" xmlns:v="https://svgstorm.com"
viewBox = "0 0 500 500"
width="500"
height="500">
<g fill="None" fill-opacity="0.0" stroke="#000000" stroke-opacity="0.00" stroke-width="0.3"><path d="
M 0.00 500.00 
L 500.00 500.00
L 500.00 0.00
L 0.00 0.00
L 0.00 500.00
M 175.00 86.00 
C 181.49 86.25 187.01 79.43 193.67 78.67 C 200.34 77.92 206.79 73.53 214.01 73.01 C 221.23 72.49 229.49 70.29 237.00 70.00
C 244.25 68.96 252.84 69.13 260.00 70.00
C 267.83 70.16 276.68 71.76 284.01 72.99 C 291.33 74.22 298.77 77.28 305.68 78.32 C 312.58 79.36 318.32 86.43 325.00 86.00
C 333.44 79.07 340.83 75.99 350.03 70.03 C 359.22 64.07 373.84 68.18 374.93 81.07 C 376.01 93.96 377.92 107.55 377.00 121.00
C 379.41 127.52 390.04 131.02 392.77 138.23 C 395.50 145.44 403.86 149.60 406.75 157.25 C 409.65 164.89 414.49 171.26 417.77 179.23 C 421.05 187.20 423.69 196.25 425.98 205.02 C 428.26 213.80 430.06 223.47 430.99 233.01 C 431.93 242.55 431.70 254.42 431.00 264.00 C 430.30 273.59 428.20 283.30 426.22 292.22 C 424.25 301.14 421.57 310.21 418.22 318.22 C 414.88 326.23 411.69 333.15 407.25 340.25 C 402.80 347.34 399.25 353.75 394.08 360.08 C 388.91 366.42 384.31 371.78 378.75 377.75 C 373.20 383.73 366.04 387.94 360.00 393.00
C 357.25 395.30 355.02 397.93 352.00 400.00
C 325.57 418.13 294.43 428.02 262.00 431.00
C 259.71 431.21 257.30 431.00 255.00 431.00
C 214.97 431.00 180.36 420.53 148.00 399.00
C 145.03 397.03 142.62 395.26 140.00 393.00
C 129.45 383.89 119.71 376.47 110.75 365.25 C 101.78 354.03 94.27 344.63 87.69 331.31 C 81.12 317.98 76.06 304.55 72.67 289.33 C 69.28 274.11 67.91 254.02 68.93 237.93 C 69.95 221.83 73.74 204.84 78.31 190.31 C 82.87 175.77 90.77 164.85 96.77 151.77 C 102.77 138.69 117.18 132.49 122.00 120.00
C 120.82 107.88 125.53 95.48 124.78 82.78 C 124.03 70.07 138.96 62.60 148.68 69.32 C 158.39 76.05 166.79 78.34 175.00 86.00 Z"/>
</g>
<g fill="None" fill-opacity="0.0" stroke="#47291D" stroke-opacity="0.99" stroke-width="0.3"><path d="
M 122.00 120.00 
C 123.04 130.66 126.27 144.08 126.99 155.01 C 127.72 165.93 135.08 175.70 135.98 186.02 C 136.87 196.35 132.64 210.87 133.00 222.00 C 133.36 233.13 123.06 243.35 126.00 255.00 C 128.94 266.65 130.49 273.82 139.75 281.25 C 149.01 288.67 161.64 285.72 165.77 296.23 C 169.90 306.73 176.67 310.44 183.75 318.25 C 190.83 326.06 199.96 329.87 209.00 334.00
C 205.62 351.22 185.62 353.87 172.75 361.75 C 159.88 369.64 146.85 379.03 140.00 393.00
C 142.62 395.26 145.03 397.03 148.00 399.00
C 158.19 374.90 184.41 369.27 204.00 358.00
C 211.54 353.66 217.86 345.71 219.00 337.00
C 238.10 342.94 260.86 342.56 280.00 337.00
C 281.28 345.61 287.89 352.54 295.00 357.00
C 315.56 368.10 341.98 375.25 352.00 400.00
C 355.02 397.93 357.25 395.30 360.00 393.00
C 354.25 392.00 353.03 378.86 347.25 375.75 C 341.47 372.64 336.58 366.02 330.25 362.75 C 323.93 359.47 317.41 355.54 310.32 352.68 C 303.23 349.82 297.03 348.18 292.08 340.92 C 287.13 333.66 298.61 331.30 304.25 327.25 C 309.88 323.20 316.90 320.12 320.90 313.90 C 324.91 307.68 331.98 305.56 333.92 296.92 C 335.87 288.29 344.93 288.08 352.67 285.67 C 360.41 283.27 363.35 277.59 368.30 271.30 C 373.26 265.01 373.73 255.71 374.00 247.00 C 374.27 238.29 368.20 232.37 367.00 224.00 C 365.80 215.62 367.98 204.08 365.02 195.98 C 362.07 187.87 365.93 181.19 367.99 172.99 C 370.05 164.80 372.85 157.69 373.99 148.99 C 375.14 140.30 376.39 129.96 377.00 121.00
C 377.92 107.55 376.01 93.96 374.93 81.07 C 373.84 68.18 359.22 64.07 350.03 70.03 C 340.83 75.99 333.44 79.07 325.00 86.00
C 317.91 91.83 313.24 98.90 305.75 104.75 C 298.27 110.61 294.17 120.93 284.32 118.68 C 274.47 116.43 260.95 113.28 250.00 114.00 C 239.05 114.72 226.37 114.19 216.00 118.00 C 205.63 121.80 201.84 111.90 194.25 105.75 C 186.66 99.60 181.57 92.13 175.00 86.00
C 166.79 78.34 158.39 76.05 148.68 69.32 C 138.96 62.60 124.03 70.07 124.78 82.78 C 125.53 95.48 120.82 107.88 122.00 120.00
M 171.00 106.00 
C 175.29 109.66 179.38 113.76 183.00 118.00
C 186.93 122.60 190.65 127.40 194.00 132.00
C 194.92 133.26 196.83 134.07 197.00 136.00
C 208.24 130.16 219.47 128.79 232.00 126.00 C 244.53 123.21 260.26 124.75 272.67 126.33 C 285.08 127.91 295.61 138.49 306.00 131.00
C 310.18 125.91 315.99 116.50 321.25 112.25 C 326.50 107.99 334.03 100.01 339.70 96.70 C 345.37 93.38 356.96 81.34 362.29 88.71 C 367.63 96.07 362.39 111.09 363.00 120.00 C 363.62 128.91 359.55 140.76 358.67 149.67 C 357.80 158.58 351.92 167.27 351.00 176.00
C 355.98 190.37 357.17 207.60 355.00 223.00
C 348.51 221.54 343.75 215.84 337.00 215.00
C 341.01 223.88 336.13 237.61 337.00 247.00 C 337.87 256.39 333.41 267.60 331.08 276.08 C 328.74 284.55 325.01 291.88 319.75 298.75 C 314.48 305.61 309.24 311.07 302.25 316.25 C 295.26 321.43 288.29 324.85 279.78 327.78 C 271.26 330.70 259.54 332.97 250.00 333.00 C 240.46 333.03 229.39 330.91 220.78 328.22 C 212.17 325.53 204.77 321.39 197.75 316.25 C 190.74 311.10 185.24 307.02 180.25 299.75 C 175.26 292.49 170.92 284.92 168.67 276.33 C 166.43 267.73 162.17 257.44 163.00 248.00 C 163.83 238.56 158.28 223.84 163.00 215.00
C 156.89 217.49 150.60 220.15 145.00 224.00
C 141.12 207.84 146.26 190.44 149.00 176.00
C 147.33 167.33 143.79 161.04 142.01 151.99 C 140.22 142.94 138.64 135.32 137.67 125.33 C 136.70 115.34 136.10 107.35 136.00 96.00 C 135.90 84.65 145.98 86.64 153.23 91.77 C 160.47 96.90 164.40 100.36 171.00 106.00
M 159.00 278.00 
C 151.27 276.51 142.05 272.48 139.08 263.92 C 136.10 255.37 131.80 244.62 140.25 236.25 C 148.69 227.88 157.35 235.57 155.00 247.00 C 152.65 258.43 158.18 267.43 159.00 278.00
M 341.00 278.00 
C 341.76 269.40 346.22 256.62 345.00 248.00 C 343.78 239.38 348.25 222.34 359.75 236.25 C 371.25 250.16 359.64 277.20 341.00 278.00 Z"/>
</g>
<g fill="None" fill-opacity="0.0" stroke="#623E0F" stroke-opacity="0.27" stroke-width="0.3"><path d="
M 237.00 70.00 
C 244.62 69.71 252.38 69.85 260.00 70.00
C 252.84 69.13 244.25 68.96 237.00 70.00 Z"/>
</g>
<g fill="None" fill-opacity="0.0" stroke="#FB9A27" stroke-opacity="0.99" stroke-width="0.3"><path d="
M 175.00 86.00 
C 181.57 92.13 186.66 99.60 194.25 105.75 C 201.84 111.90 205.63 121.80 216.00 118.00 C 226.37 114.19 239.05 114.72 250.00 114.00 C 260.95 113.28 274.47 116.43 284.32 118.68 C 294.17 120.93 298.27 110.61 305.75 104.75 C 313.24 98.90 317.91 91.83 325.00 86.00
C 318.32 86.43 312.58 79.36 305.68 78.32 C 298.77 77.28 291.33 74.22 284.01 72.99 C 276.68 71.76 267.83 70.16 260.00 70.00
C 252.38 69.85 244.62 69.71 237.00 70.00
C 229.49 70.29 221.23 72.49 214.01 73.01 C 206.79 73.53 200.34 77.92 193.67 78.67 C 187.01 79.43 181.49 86.25 175.00 86.00 Z"/>
</g>
<g fill="None" fill-opacity="0.0" stroke="#FCD08E" stroke-opacity="1.00" stroke-width="0.3"><path d="
M 149.00 176.00 
C 150.32 172.41 155.47 166.94 157.30 162.30 C 159.14 157.66 165.23 155.05 167.75 150.75 C 170.27 146.46 177.14 144.12 179.75 140.75 C 182.35 137.37 193.02 135.48 194.00 132.00
C 190.65 127.40 186.93 122.60 183.00 118.00
C 179.08 114.08 174.87 109.87 171.00 106.00
C 164.40 100.36 160.47 96.90 153.23 91.77 C 145.98 86.64 135.90 84.65 136.00 96.00 C 136.10 107.35 136.70 115.34 137.67 125.33 C 138.64 135.32 140.22 142.94 142.01 151.99 C 143.79 161.04 147.33 167.33 149.00 176.00 Z"/>
</g>
<g fill="None" fill-opacity="0.0" stroke="#FCD18E" stroke-opacity="1.00" stroke-width="0.3"><path d="
M 306.00 131.00 
C 307.12 136.63 315.06 134.42 319.25 139.75 C 323.44 145.09 326.20 142.42 332.25 149.75 C 338.29 157.08 347.95 167.19 351.00 176.00
C 351.92 167.27 357.80 158.58 358.67 149.67 C 359.55 140.76 363.62 128.91 363.00 120.00 C 362.39 111.09 367.63 96.07 362.29 88.71 C 356.96 81.34 345.37 93.38 339.70 96.70 C 334.03 100.01 326.50 107.99 321.25 112.25 C 315.99 116.50 310.18 125.91 306.00 131.00 Z"/>
</g>
<g fill="None" fill-opacity="0.0" stroke="#9A7854" stroke-opacity="1.00" stroke-width="0.3"><path d="
M 183.00 118.00 
C 179.38 113.76 175.29 109.66 171.00 106.00
C 174.87 109.87 179.08 114.08 183.00 118.00 Z"/>
</g>
<g fill="None" fill-opacity="0.0" stroke="#FC9926" stroke-opacity="1.00" stroke-width="0.3"><path d="
M 140.00 393.00 
C 146.85 379.03 159.88 369.64 172.75 361.75 C 185.62 353.87 205.62 351.22 209.00 334.00
C 199.96 329.87 190.83 326.06 183.75 318.25 C 176.67 310.44 169.90 306.73 165.77 296.23 C 161.64 285.72 149.01 288.67 139.75 281.25 C 130.49 273.82 128.94 266.65 126.00 255.00 C 123.06 243.35 133.36 233.13 133.00 222.00 C 132.64 210.87 136.87 196.35 135.98 186.02 C 135.08 175.70 127.72 165.93 126.99 155.01 C 126.27 144.08 123.04 130.66 122.00 120.00
C 117.18 132.49 102.77 138.69 96.77 151.77 C 90.77 164.85 82.87 175.77 78.31 190.31 C 73.74 204.84 69.95 221.83 68.93 237.93 C 67.91 254.02 69.28 274.11 72.67 289.33 C 76.06 304.55 81.12 317.98 87.69 331.31 C 94.27 344.63 101.78 354.03 110.75 365.25 C 119.71 376.47 129.45 383.89 140.00 393.00 Z"/>
</g>
<g fill="None" fill-opacity="0.0" stroke="#FC9926" stroke-opacity="1.00" stroke-width="0.3"><path d="
M 360.00 393.00 
C 366.04 387.94 373.20 383.73 378.75 377.75 C 384.31 371.78 388.91 366.42 394.08 360.08 C 399.25 353.75 402.80 347.34 407.25 340.25 C 411.69 333.15 414.88 326.23 418.22 318.22 C 421.57 310.21 424.25 301.14 426.22 292.22 C 428.20 283.30 430.30 273.59 431.00 264.00 C 431.70 254.42 431.93 242.55 430.99 233.01 C 430.06 223.47 428.26 213.80 425.98 205.02 C 423.69 196.25 421.05 187.20 417.77 179.23 C 414.49 171.26 409.65 164.89 406.75 157.25 C 403.86 149.60 395.50 145.44 392.77 138.23 C 390.04 131.02 379.41 127.52 377.00 121.00
C 376.39 129.96 375.14 140.30 373.99 148.99 C 372.85 157.69 370.05 164.80 367.99 172.99 C 365.93 181.19 362.07 187.87 365.02 195.98 C 367.98 204.08 365.80 215.62 367.00 224.00 C 368.20 232.37 374.27 238.29 374.00 247.00 C 373.73 255.71 373.26 265.01 368.30 271.30 C 363.35 277.59 360.41 283.27 352.67 285.67 C 344.93 288.08 335.87 288.29 333.92 296.92 C 331.98 305.56 324.91 307.68 320.90 313.90 C 316.90 320.12 309.88 323.20 304.25 327.25 C 298.61 331.30 287.13 333.66 292.08 340.92 C 297.03 348.18 303.23 349.82 310.32 352.68 C 317.41 355.54 323.93 359.47 330.25 362.75 C 336.58 366.02 341.47 372.64 347.25 375.75 C 353.03 378.86 354.25 392.00 360.00 393.00 Z"/>
</g>
<g fill="None" fill-opacity="0.0" stroke="#D85619" stroke-opacity="1.00" stroke-width="0.3"><path d="
M 194.00 132.00 
C 193.02 135.48 182.35 137.37 179.75 140.75 C 177.14 144.12 170.27 146.46 167.75 150.75 C 165.23 155.05 159.14 157.66 157.30 162.30 C 155.47 166.94 150.32 172.41 149.00 176.00
C 146.26 190.44 141.12 207.84 145.00 224.00
C 150.60 220.15 156.89 217.49 163.00 215.00
C 179.46 208.30 194.78 197.88 209.00 187.00
C 232.02 215.26 274.25 193.06 289.00 167.00
C 294.01 190.44 316.50 206.51 337.00 215.00
C 343.75 215.84 348.51 221.54 355.00 223.00
C 357.17 207.60 355.98 190.37 351.00 176.00
C 347.95 167.19 338.29 157.08 332.25 149.75 C 326.20 142.42 323.44 145.09 319.25 139.75 C 315.06 134.42 307.12 136.63 306.00 131.00
C 295.61 138.49 285.08 127.91 272.67 126.33 C 260.26 124.75 244.53 123.21 232.00 126.00 C 219.47 128.79 208.24 130.16 197.00 136.00
C 196.83 134.07 194.92 133.26 194.00 132.00 Z"/>
</g>
<g fill="None" fill-opacity="0.0" stroke="#FDC788" stroke-opacity="1.00" stroke-width="0.3"><path d="
M 163.00 215.00 
C 158.28 223.84 163.83 238.56 163.00 248.00 C 162.17 257.44 166.43 267.73 168.67 276.33 C 170.92 284.92 175.26 292.49 180.25 299.75 C 185.24 307.02 190.74 311.10 197.75 316.25 C 204.77 321.39 212.17 325.53 220.78 328.22 C 229.39 330.91 240.46 333.03 250.00 333.00 C 259.54 332.97 271.26 330.70 279.78 327.78 C 288.29 324.85 295.26 321.43 302.25 316.25 C 309.24 311.07 314.48 305.61 319.75 298.75 C 325.01 291.88 328.74 284.55 331.08 276.08 C 333.41 267.60 337.87 256.39 337.00 247.00 C 336.13 237.61 341.01 223.88 337.00 215.00
C 316.50 206.51 294.01 190.44 289.00 167.00
C 274.25 193.06 232.02 215.26 209.00 187.00
C 194.78 197.88 179.46 208.30 163.00 215.00
M 212.00 231.00 
C 222.06 234.38 218.34 257.01 206.92 254.07 C 195.51 251.13 198.57 226.49 212.00 231.00
M 300.00 246.00 
C 299.79 247.39 299.39 247.07 299.00 248.00
C 293.95 260.13 279.29 253.39 282.33 240.33 C 285.37 227.27 302.11 231.90 300.00 246.00
M 246.00 286.00 
C 248.60 286.18 251.40 286.14 254.00 286.00
C 258.53 285.75 269.40 277.34 272.74 282.26 C 276.09 287.17 264.82 292.67 260.32 294.32 C 255.82 295.97 243.56 295.75 238.93 294.07 C 234.29 292.40 223.69 286.40 227.78 281.78 C 231.86 277.16 240.41 285.62 246.00 286.00 Z"/>
</g>
<g fill="None" fill-opacity="0.0" stroke="#4A281F" stroke-opacity="1.00" stroke-width="0.3"><path d="
M 212.00 231.00 
C 198.57 226.49 195.51 251.13 206.92 254.07 C 218.34 257.01 222.06 234.38 212.00 231.00 Z"/>
</g>
<g fill="None" fill-opacity="0.0" stroke="#F8C68A" stroke-opacity="1.00" stroke-width="0.3"><path d="
M 159.00 278.00 
C 158.18 267.43 152.65 258.43 155.00 247.00 C 157.35 235.57 148.69 227.88 140.25 236.25 C 131.80 244.62 136.10 255.37 139.08 263.92 C 142.05 272.48 151.27 276.51 159.00 278.00 Z"/>
</g>
<g fill="None" fill-opacity="0.0" stroke="#522D14" stroke-opacity="1.00" stroke-width="0.3"><path d="
M 299.00 248.00 
C 296.84 250.10 293.18 250.85 292.00 254.00
C 283.95 251.82 280.94 242.72 286.77 235.77 C 292.60 228.82 299.96 239.49 300.00 246.00
C 302.11 231.90 285.37 227.27 282.33 240.33 C 279.29 253.39 293.95 260.13 299.00 248.00 Z"/>
</g>
<g fill="None" fill-opacity="0.0" stroke="#F8C68A" stroke-opacity="1.00" stroke-width="0.3"><path d="
M 341.00 278.00 
C 359.64 277.20 371.25 250.16 359.75 236.25 C 348.25 222.34 343.78 239.38 345.00 248.00 C 346.22 256.62 341.76 269.40 341.00 278.00 Z"/>
</g>
<g fill="None" fill-opacity="0.0" stroke="#472521" stroke-opacity="1.00" stroke-width="0.3"><path d="
M 299.00 248.00 
C 299.39 247.07 299.79 247.39 300.00 246.00
C 299.96 239.49 292.60 228.82 286.77 235.77 C 280.94 242.72 283.95 251.82 292.00 254.00
C 293.18 250.85 296.84 250.10 299.00 248.00 Z"/>
</g>
<g fill="None" fill-opacity="0.0" stroke="#482B1D" stroke-opacity="1.00" stroke-width="0.3"><path d="
M 254.00 286.00 
C 251.12 286.47 248.84 286.51 246.00 286.00
C 240.41 285.62 231.86 277.16 227.78 281.78 C 223.69 286.40 234.29 292.40 238.93 294.07 C 243.56 295.75 255.82 295.97 260.32 294.32 C 264.82 292.67 276.09 287.17 272.74 282.26 C 269.40 277.34 258.53 285.75 254.00 286.00 Z"/>
</g>
<g fill="None" fill-opacity="0.0" stroke="#916F52" stroke-opacity="1.00" stroke-width="0.3"><path d="
M 254.00 286.00 
C 251.40 286.14 248.60 286.18 246.00 286.00
C 248.84 286.51 251.12 286.47 254.00 286.00 Z"/>
</g>
<g fill="None" fill-opacity="0.0" stroke="#FCC687" stroke-opacity="1.00" stroke-width="0.3"><path d="
M 204.00 358.00 
C 210.88 358.65 215.43 368.28 223.03 369.97 C 230.62 371.67 241.15 376.19 250.00 375.00 C 258.85 373.81 268.57 374.05 276.08 370.08 C 283.60 366.11 289.08 362.97 295.00 357.00
C 287.89 352.54 281.28 345.61 280.00 337.00
C 260.86 342.56 238.10 342.94 219.00 337.00
C 217.86 345.71 211.54 353.66 204.00 358.00 Z"/>
</g>
<g fill="None" fill-opacity="0.0" stroke="#E95D19" stroke-opacity="0.99" stroke-width="0.3"><path d="
M 204.00 358.00 
C 184.41 369.27 158.19 374.90 148.00 399.00
C 180.36 420.53 214.97 431.00 255.00 431.00
C 256.87 430.82 260.33 431.00 262.00 431.00
C 294.43 428.02 325.57 418.13 352.00 400.00
C 341.98 375.25 315.56 368.10 295.00 357.00
C 289.08 362.97 283.60 366.11 276.08 370.08 C 268.57 374.05 258.85 373.81 250.00 375.00 C 241.15 376.19 230.62 371.67 223.03 369.97 C 215.43 368.28 210.88 358.65 204.00 358.00 Z"/>
</g>
<g fill="None" fill-opacity="0.0" stroke="#C06D41" stroke-opacity="0.51" stroke-width="0.3"><path d="
M 255.00 431.00 
C 257.30 431.00 259.71 431.21 262.00 431.00
C 260.33 431.00 256.87 430.82 255.00 431.00 Z"/>
</g>
<g fill="#000000" fill-opacity="0.00" stroke="None">
<path d="
M 0.00 500.00 
L 500.00 500.00
L 500.00 0.00
L 0.00 0.00
L 0.00 500.00
M 175.00 86.00 
C 181.49 86.25 187.01 79.43 193.67 78.67 C 200.34 77.92 206.79 73.53 214.01 73.01 C 221.23 72.49 229.49 70.29 237.00 70.00
C 244.25 68.96 252.84 69.13 260.00 70.00
C 267.83 70.16 276.68 71.76 284.01 72.99 C 291.33 74.22 298.77 77.28 305.68 78.32 C 312.58 79.36 318.32 86.43 325.00 86.00
C 333.44 79.07 340.83 75.99 350.03 70.03 C 359.22 64.07 373.84 68.18 374.93 81.07 C 376.01 93.96 377.92 107.55 377.00 121.00
C 379.41 127.52 390.04 131.02 392.77 138.23 C 395.50 145.44 403.86 149.60 406.75 157.25 C 409.65 164.89 414.49 171.26 417.77 179.23 C 421.05 187.20 423.69 196.25 425.98 205.02 C 428.26 213.80 430.06 223.47 430.99 233.01 C 431.93 242.55 431.70 254.42 431.00 264.00 C 430.30 273.59 428.20 283.30 426.22 292.22 C 424.25 301.14 421.57 310.21 418.22 318.22 C 414.88 326.23 411.69 333.15 407.25 340.25 C 402.80 347.34 399.25 353.75 394.08 360.08 C 388.91 366.42 384.31 371.78 378.75 377.75 C 373.20 383.73 366.04 387.94 360.00 393.00
C 357.25 395.30 355.02 397.93 352.00 400.00
C 325.57 418.13 294.43 428.02 262.00 431.00
C 259.71 431.21 257.30 431.00 255.00 431.00
C 214.97 431.00 180.36 420.53 148.00 399.00
C 145.03 397.03 142.62 395.26 140.00 393.00
C 129.45 383.89 119.71 376.47 110.75 365.25 C 101.78 354.03 94.27 344.63 87.69 331.31 C 81.12 317.98 76.06 304.55 72.67 289.33 C 69.28 274.11 67.91 254.02 68.93 237.93 C 69.95 221.83 73.74 204.84 78.31 190.31 C 82.87 175.77 90.77 164.85 96.77 151.77 C 102.77 138.69 117.18 132.49 122.00 120.00
C 120.82 107.88 125.53 95.48 124.78 82.78 C 124.03 70.07 138.96 62.60 148.68 69.32 C 158.39 76.05 166.79 78.34 175.00 86.00 Z"/>
</g>
<g fill="#47291D" fill-opacity="0.99" stroke="None">
<path d="
M 122.00 120.00 
C 123.04 130.66 126.27 144.08 126.99 155.01 C 127.72 165.93 135.08 175.70 135.98 186.02 C 136.87 196.35 132.64 210.87 133.00 222.00 C 133.36 233.13 123.06 243.35 126.00 255.00 C 128.94 266.65 130.49 273.82 139.75 281.25 C 149.01 288.67 161.64 285.72 165.77 296.23 C 169.90 306.73 176.67 310.44 183.75 318.25 C 190.83 326.06 199.96 329.87 209.00 334.00
C 205.62 351.22 185.62 353.87 172.75 361.75 C 159.88 369.64 146.85 379.03 140.00 393.00
C 142.62 395.26 145.03 397.03 148.00 399.00
C 158.19 374.90 184.41 369.27 204.00 358.00
C 211.54 353.66 217.86 345.71 219.00 337.00
C 238.10 342.94 260.86 342.56 280.00 337.00
C 281.28 345.61 287.89 352.54 295.00 357.00
C 315.56 368.10 341.98 375.25 352.00 400.00
C 355.02 397.93 357.25 395.30 360.00 393.00
C 354.25 392.00 353.03 378.86 347.25 375.75 C 341.47 372.64 336.58 366.02 330.25 362.75 C 323.93 359.47 317.41 355.54 310.32 352.68 C 303.23 349.82 297.03 348.18 292.08 340.92 C 287.13 333.66 298.61 331.30 304.25 327.25 C 309.88 323.20 316.90 320.12 320.90 313.90 C 324.91 307.68 331.98 305.56 333.92 296.92 C 335.87 288.29 344.93 288.08 352.67 285.67 C 360.41 283.27 363.35 277.59 368.30 271.30 C 373.26 265.01 373.73 255.71 374.00 247.00 C 374.27 238.29 368.20 232.37 367.00 224.00 C 365.80 215.62 367.98 204.08 365.02 195.98 C 362.07 187.87 365.93 181.19 367.99 172.99 C 370.05 164.80 372.85 157.69 373.99 148.99 C 375.14 140.30 376.39 129.96 377.00 121.00
C 377.92 107.55 376.01 93.96 374.93 81.07 C 373.84 68.18 359.22 64.07 350.03 70.03 C 340.83 75.99 333.44 79.07 325.00 86.00
C 317.91 91.83 313.24 98.90 305.75 104.75 C 298.27 110.61 294.17 120.93 284.32 118.68 C 274.47 116.43 260.95 113.28 250.00 114.00 C 239.05 114.72 226.37 114.19 216.00 118.00 C 205.63 121.80 201.84 111.90 194.25 105.75 C 186.66 99.60 181.57 92.13 175.00 86.00
C 166.79 78.34 158.39 76.05 148.68 69.32 C 138.96 62.60 124.03 70.07 124.78 82.78 C 125.53 95.48 120.82 107.88 122.00 120.00
M 171.00 106.00 
C 175.29 109.66 179.38 113.76 183.00 118.00
C 186.93 122.60 190.65 127.40 194.00 132.00
C 194.92 133.26 196.83 134.07 197.00 136.00
C 208.24 130.16 219.47 128.79 232.00 126.00 C 244.53 123.21 260.26 124.75 272.67 126.33 C 285.08 127.91 295.61 138.49 306.00 131.00
C 310.18 125.91 315.99 116.50 321.25 112.25 C 326.50 107.99 334.03 100.01 339.70 96.70 C 345.37 93.38 356.96 81.34 362.29 88.71 C 367.63 96.07 362.39 111.09 363.00 120.00 C 363.62 128.91 359.55 140.76 358.67 149.67 C 357.80 158.58 351.92 167.27 351.00 176.00
C 355.98 190.37 357.17 207.60 355.00 223.00
C 348.51 221.54 343.75 215.84 337.00 215.00
C 341.01 223.88 336.13 237.61 337.00 247.00 C 337.87 256.39 333.41 267.60 331.08 276.08 C 328.74 284.55 325.01 291.88 319.75 298.75 C 314.48 305.61 309.24 311.07 302.25 316.25 C 295.26 321.43 288.29 324.85 279.78 327.78 C 271.26 330.70 259.54 332.97 250.00 333.00 C 240.46 333.03 229.39 330.91 220.78 328.22 C 212.17 325.53 204.77 321.39 197.75 316.25 C 190.74 311.10 185.24 307.02 180.25 299.75 C 175.26 292.49 170.92 284.92 168.67 276.33 C 166.43 267.73 162.17 257.44 163.00 248.00 C 163.83 238.56 158.28 223.84 163.00 215.00
C 156.89 217.49 150.60 220.15 145.00 224.00
C 141.12 207.84 146.26 190.44 149.00 176.00
C 147.33 167.33 143.79 161.04 142.01 151.99 C 140.22 142.94 138.64 135.32 137.67 125.33 C 136.70 115.34 136.10 107.35 136.00 96.00 C 135.90 84.65 145.98 86.64 153.23 91.77 C 160.47 96.90 164.40 100.36 171.00 106.00
M 159.00 278.00 
C 151.27 276.51 142.05 272.48 139.08 263.92 C 136.10 255.37 131.80 244.62 140.25 236.25 C 148.69 227.88 157.35 235.57 155.00 247.00 C 152.65 258.43 158.18 267.43 159.00 278.00
M 341.00 278.00 
C 341.76 269.40 346.22 256.62 345.00 248.00 C 343.78 239.38 348.25 222.34 359.75 236.25 C 371.25 250.16 359.64 277.20 341.00 278.00 Z"/>
</g>
<g fill="#623E0F" fill-opacity="0.27" stroke="None">
<path d="
M 237.00 70.00 
C 244.62 69.71 252.38 69.85 260.00 70.00
C 252.84 69.13 244.25 68.96 237.00 70.00 Z"/>
</g>
<g fill="#FB9A27" fill-opacity="0.99" stroke="None">
<path d="
M 175.00 86.00 
C 181.57 92.13 186.66 99.60 194.25 105.75 C 201.84 111.90 205.63 121.80 216.00 118.00 C 226.37 114.19 239.05 114.72 250.00 114.00 C 260.95 113.28 274.47 116.43 284.32 118.68 C 294.17 120.93 298.27 110.61 305.75 104.75 C 313.24 98.90 317.91 91.83 325.00 86.00
C 318.32 86.43 312.58 79.36 305.68 78.32 C 298.77 77.28 291.33 74.22 284.01 72.99 C 276.68 71.76 267.83 70.16 260.00 70.00
C 252.38 69.85 244.62 69.71 237.00 70.00
C 229.49 70.29 221.23 72.49 214.01 73.01 C 206.79 73.53 200.34 77.92 193.67 78.67 C 187.01 79.43 181.49 86.25 175.00 86.00 Z"/>
</g>
<g fill="#FCD08E" fill-opacity="1.00" stroke="None">
<path d="
M 149.00 176.00 
C 150.32 172.41 155.47 166.94 157.30 162.30 C 159.14 157.66 165.23 155.05 167.75 150.75 C 170.27 146.46 177.14 144.12 179.75 140.75 C 182.35 137.37 193.02 135.48 194.00 132.00
C 190.65 127.40 186.93 122.60 183.00 118.00
C 179.08 114.08 174.87 109.87 171.00 106.00
C 164.40 100.36 160.47 96.90 153.23 91.77 C 145.98 86.64 135.90 84.65 136.00 96.00 C 136.10 107.35 136.70 115.34 137.67 125.33 C 138.64 135.32 140.22 142.94 142.01 151.99 C 143.79 161.04 147.33 167.33 149.00 176.00 Z"/>
</g>
<g fill="#FCD18E" fill-opacity="1.00" stroke="None">
<path d="
M 306.00 131.00 
C 307.12 136.63 315.06 134.42 319.25 139.75 C 323.44 145.09 326.20 142.42 332.25 149.75 C 338.29 157.08 347.95 167.19 351.00 176.00
C 351.92 167.27 357.80 158.58 358.67 149.67 C 359.55 140.76 363.62 128.91 363.00 120.00 C 362.39 111.09 367.63 96.07 362.29 88.71 C 356.96 81.34 345.37 93.38 339.70 96.70 C 334.03 100.01 326.50 107.99 321.25 112.25 C 315.99 116.50 310.18 125.91 306.00 131.00 Z"/>
</g>
<g fill="#9A7854" fill-opacity="1.00" stroke="None">
<path d="
M 183.00 118.00 
C 179.38 113.76 175.29 109.66 171.00 106.00
C 174.87 109.87 179.08 114.08 183.00 118.00 Z"/>
</g>
<g fill="#FC9926" fill-opacity="1.00" stroke="None">
<path d="
M 140.00 393.00 
C 146.85 379.03 159.88 369.64 172.75 361.75 C 185.62 353.87 205.62 351.22 209.00 334.00
C 199.96 329.87 190.83 326.06 183.75 318.25 C 176.67 310.44 169.90 306.73 165.77 296.23 C 161.64 285.72 149.01 288.67 139.75 281.25 C 130.49 273.82 128.94 266.65 126.00 255.00 C 123.06 243.35 133.36 233.13 133.00 222.00 C 132.64 210.87 136.87 196.35 135.98 186.02 C 135.08 175.70 127.72 165.93 126.99 155.01 C 126.27 144.08 123.04 130.66 122.00 120.00
C 117.18 132.49 102.77 138.69 96.77 151.77 C 90.77 164.85 82.87 175.77 78.31 190.31 C 73.74 204.84 69.95 221.83 68.93 237.93 C 67.91 254.02 69.28 274.11 72.67 289.33 C 76.06 304.55 81.12 317.98 87.69 331.31 C 94.27 344.63 101.78 354.03 110.75 365.25 C 119.71 376.47 129.45 383.89 140.00 393.00 Z"/>
</g>
<g fill="#FC9926" fill-opacity="1.00" stroke="None">
<path d="
M 360.00 393.00 
C 366.04 387.94 373.20 383.73 378.75 377.75 C 384.31 371.78 388.91 366.42 394.08 360.08 C 399.25 353.75 402.80 347.34 407.25 340.25 C 411.69 333.15 414.88 326.23 418.22 318.22 C 421.57 310.21 424.25 301.14 426.22 292.22 C 428.20 283.30 430.30 273.59 431.00 264.00 C 431.70 254.42 431.93 242.55 430.99 233.01 C 430.06 223.47 428.26 213.80 425.98 205.02 C 423.69 196.25 421.05 187.20 417.77 179.23 C 414.49 171.26 409.65 164.89 406.75 157.25 C 403.86 149.60 395.50 145.44 392.77 138.23 C 390.04 131.02 379.41 127.52 377.00 121.00
C 376.39 129.96 375.14 140.30 373.99 148.99 C 372.85 157.69 370.05 164.80 367.99 172.99 C 365.93 181.19 362.07 187.87 365.02 195.98 C 367.98 204.08 365.80 215.62 367.00 224.00 C 368.20 232.37 374.27 238.29 374.00 247.00 C 373.73 255.71 373.26 265.01 368.30 271.30 C 363.35 277.59 360.41 283.27 352.67 285.67 C 344.93 288.08 335.87 288.29 333.92 296.92 C 331.98 305.56 324.91 307.68 320.90 313.90 C 316.90 320.12 309.88 323.20 304.25 327.25 C 298.61 331.30 287.13 333.66 292.08 340.92 C 297.03 348.18 303.23 349.82 310.32 352.68 C 317.41 355.54 323.93 359.47 330.25 362.75 C 336.58 366.02 341.47 372.64 347.25 375.75 C 353.03 378.86 354.25 392.00 360.00 393.00 Z"/>
</g>
<g fill="#D85619" fill-opacity="1.00" stroke="None">
<path d="
M 194.00 132.00 
C 193.02 135.48 182.35 137.37 179.75 140.75 C 177.14 144.12 170.27 146.46 167.75 150.75 C 165.23 155.05 159.14 157.66 157.30 162.30 C 155.47 166.94 150.32 172.41 149.00 176.00
C 146.26 190.44 141.12 207.84 145.00 224.00
C 150.60 220.15 156.89 217.49 163.00 215.00
C 179.46 208.30 194.78 197.88 209.00 187.00
C 232.02 215.26 274.25 193.06 289.00 167.00
C 294.01 190.44 316.50 206.51 337.00 215.00
C 343.75 215.84 348.51 221.54 355.00 223.00
C 357.17 207.60 355.98 190.37 351.00 176.00
C 347.95 167.19 338.29 157.08 332.25 149.75 C 326.20 142.42 323.44 145.09 319.25 139.75 C 315.06 134.42 307.12 136.63 306.00 131.00
C 295.61 138.49 285.08 127.91 272.67 126.33 C 260.26 124.75 244.53 123.21 232.00 126.00 C 219.47 128.79 208.24 130.16 197.00 136.00
C 196.83 134.07 194.92 133.26 194.00 132.00 Z"/>
</g>
<g fill="#FDC788" fill-opacity="1.00" stroke="None">
<path d="
M 163.00 215.00 
C 158.28 223.84 163.83 238.56 163.00 248.00 C 162.17 257.44 166.43 267.73 168.67 276.33 C 170.92 284.92 175.26 292.49 180.25 299.75 C 185.24 307.02 190.74 311.10 197.75 316.25 C 204.77 321.39 212.17 325.53 220.78 328.22 C 229.39 330.91 240.46 333.03 250.00 333.00 C 259.54 332.97 271.26 330.70 279.78 327.78 C 288.29 324.85 295.26 321.43 302.25 316.25 C 309.24 311.07 314.48 305.61 319.75 298.75 C 325.01 291.88 328.74 284.55 331.08 276.08 C 333.41 267.60 337.87 256.39 337.00 247.00 C 336.13 237.61 341.01 223.88 337.00 215.00
C 316.50 206.51 294.01 190.44 289.00 167.00
C 274.25 193.06 232.02 215.26 209.00 187.00
C 194.78 197.88 179.46 208.30 163.00 215.00
M 212.00 231.00 
C 222.06 234.38 218.34 257.01 206.92 254.07 C 195.51 251.13 198.57 226.49 212.00 231.00
M 300.00 246.00 
C 299.79 247.39 299.39 247.07 299.00 248.00
C 293.95 260.13 279.29 253.39 282.33 240.33 C 285.37 227.27 302.11 231.90 300.00 246.00
M 246.00 286.00 
C 248.60 286.18 251.40 286.14 254.00 286.00
C 258.53 285.75 269.40 277.34 272.74 282.26 C 276.09 287.17 264.82 292.67 260.32 294.32 C 255.82 295.97 243.56 295.75 238.93 294.07 C 234.29 292.40 223.69 286.40 227.78 281.78 C 231.86 277.16 240.41 285.62 246.00 286.00 Z"/>
</g>
<g fill="#4A281F" fill-opacity="1.00" stroke="None">
<path d="
M 212.00 231.00 
C 198.57 226.49 195.51 251.13 206.92 254.07 C 218.34 257.01 222.06 234.38 212.00 231.00 Z"/>
</g>
<g fill="#F8C68A" fill-opacity="1.00" stroke="None">
<path d="
M 159.00 278.00 
C 158.18 267.43 152.65 258.43 155.00 247.00 C 157.35 235.57 148.69 227.88 140.25 236.25 C 131.80 244.62 136.10 255.37 139.08 263.92 C 142.05 272.48 151.27 276.51 159.00 278.00 Z"/>
</g>
<g fill="#522D14" fill-opacity="1.00" stroke="None">
<path d="
M 299.00 248.00 
C 296.84 250.10 293.18 250.85 292.00 254.00
C 283.95 251.82 280.94 242.72 286.77 235.77 C 292.60 228.82 299.96 239.49 300.00 246.00
C 302.11 231.90 285.37 227.27 282.33 240.33 C 279.29 253.39 293.95 260.13 299.00 248.00 Z"/>
</g>
<g fill="#F8C68A" fill-opacity="1.00" stroke="None">
<path d="
M 341.00 278.00 
C 359.64 277.20 371.25 250.16 359.75 236.25 C 348.25 222.34 343.78 239.38 345.00 248.00 C 346.22 256.62 341.76 269.40 341.00 278.00 Z"/>
</g>
<g fill="#472521" fill-opacity="1.00" stroke="None">
<path d="
M 299.00 248.00 
C 299.39 247.07 299.79 247.39 300.00 246.00
C 299.96 239.49 292.60 228.82 286.77 235.77 C 280.94 242.72 283.95 251.82 292.00 254.00
C 293.18 250.85 296.84 250.10 299.00 248.00 Z"/>
</g>
<g fill="#482B1D" fill-opacity="1.00" stroke="None">
<path d="
M 254.00 286.00 
C 251.12 286.47 248.84 286.51 246.00 286.00
C 240.41 285.62 231.86 277.16 227.78 281.78 C 223.69 286.40 234.29 292.40 238.93 294.07 C 243.56 295.75 255.82 295.97 260.32 294.32 C 264.82 292.67 276.09 287.17 272.74 282.26 C 269.40 277.34 258.53 285.75 254.00 286.00 Z"/>
</g>
<g fill="#916F52" fill-opacity="1.00" stroke="None">
<path d="
M 254.00 286.00 
C 251.40 286.14 248.60 286.18 246.00 286.00
C 248.84 286.51 251.12 286.47 254.00 286.00 Z"/>
</g>
<g fill="#FCC687" fill-opacity="1.00" stroke="None">
<path d="
M 204.00 358.00 
C 210.88 358.65 215.43 368.28 223.03 369.97 C 230.62 371.67 241.15 376.19 250.00 375.00 C 258.85 373.81 268.57 374.05 276.08 370.08 C 283.60 366.11 289.08 362.97 295.00 357.00
C 287.89 352.54 281.28 345.61 280.00 337.00
C 260.86 342.56 238.10 342.94 219.00 337.00
C 217.86 345.71 211.54 353.66 204.00 358.00 Z"/>
</g>
<g fill="#E95D19" fill-opacity="0.99" stroke="None">
<path d="
M 204.00 358.00 
C 184.41 369.27 158.19 374.90 148.00 399.00
C 180.36 420.53 214.97 431.00 255.00 431.00
C 256.87 430.82 260.33 431.00 262.00 431.00
C 294.43 428.02 325.57 418.13 352.00 400.00
C 341.98 375.25 315.56 368.10 295.00 357.00
C 289.08 362.97 283.60 366.11 276.08 370.08 C 268.57 374.05 258.85 373.81 250.00 375.00 C 241.15 376.19 230.62 371.67 223.03 369.97 C 215.43 368.28 210.88 358.65 204.00 358.00 Z"/>
</g>
<g fill="#C06D41" fill-opacity="0.51" stroke="None">
<path d="
M 255.00 431.00 
C 257.30 431.00 259.71 431.21 262.00 431.00
C 260.33 431.00 256.87 430.82 255.00 431.00 Z"/>
</g>
</svg>