<svg xmlns="http://www.w3.org/2000/svg" width="750" height="500" viewBox="0 0 750 500">
  <rect width="750" height="500" fill="#c60b1e"/>
  <rect width="750" height="250" fill="#ffc400" y="125"/>
  <path d="M298.77 250 260 279.36v-58.72zm53.06 0-38.77 29.36v-58.72zm-106.11 0-38.77 29.36v-58.72z" fill="#c60b1e"/>
  <rect width="300" height="200" fill="#c60b1e" x="150" y="150"/>
  <rect width="250" height="150" fill="#ffc400" x="175" y="175"/>
  <path d="M374.9 204c-3.64 0-7.1 1.43-9.67 4-2.58 2.57-4 6.03-4.01 9.67 0 3.63 1.42 7.1 3.99 9.67 2.56 2.57 6.02 4 9.66 4v-4.1c-2.57 0-5.03-1.02-6.85-2.84a9.74 9.74 0 0 1 0-13.7 9.7 9.7 0 0 1 6.86-2.84Zm-5.33 50.15c-3.07 1.99-5.19 5.34-5.19 9.15 0 6.07 4.92 11 11 11s11-4.93 11-11c0-3.85-2.08-7.16-5.18-9.15v4.82c1.4 1.24 2.3 3.05 2.29 5.07 0 3.76-3.04 6.8-6.8 6.8-3.75 0-6.8-3.04-6.8-6.8 0-2.11 1-4 2.4-5.02zm14.2 0a13.9 13.9 0 0 0-8.87-3.15c-3.33 0-6.4 1.17-8.8 3.1v-3.4h-3.6v22h3.6v-8.27a11 11 0 0 0 8.8 4.34c3.35 0 6.38-1.5 8.87-3.86zm-9.2-11.15-11.33-11.33-2.7 2.7 11.33 11.33zm0-11.33 11.32 11.33 2.7-2.7-11.31-11.33zm0 5.66 5.66-5.66-2.7-2.7-2.96 2.96-2.97-2.96-2.7 2.7z" fill="#c60b1e" style="paint-order:markers fill stroke"/>
  <path d="m320 250 43.3 14.06L320 278.12l-43.3-14.06zm-139.99 0-43.3 14.06 43.3 14.06 43.3-14.06z" fill="#c60b1e" stroke="#c60b1e" stroke-width="4"/>
</svg>
